<?xml version="1.0" encoding="utf-8"?>
<!-- Generator: Adobe Illustrator 20.1.0, SVG Export Plug-In . SVG Version: 6.00 Build 0)  -->
<svg version="1.1" id="Layer_1" xmlns="http://www.w3.org/2000/svg" xmlns:xlink="http://www.w3.org/1999/xlink" x="0px" y="0px"
	 viewBox="0 0 523 189" style="enable-background:new 0 0 523 189;" xml:space="preserve">
<style type="text/css">
	.st0{opacity:0.1;fill:none;stroke:#EB3349;}
	.st1{fill:#E0AC6E;}
	.st2{fill:none;stroke:#000000;}
	.st3{fill:#FFDCC5;}
	.st4{fill:#16110F;}
	.st5{fill:none;stroke:#000000;stroke-linecap:round;}
	.st6{fill:#7F7F7F;}
	.st7{fill:#9B7F3A;}
	.st8{fill:#FFFFFF;}
	.st9{fill:#D6D6D6;}
	.st10{fill:#B0EEFF;}
</style>
<title>hclm</title>
<desc>Created with Sketch.</desc>
<g id="v1">
	<g id="landing-screen---white" transform="translate(-422.000000, -3885.000000)">
		<g id="Group-7" transform="translate(422.000000, 3783.000000)">
			<g id="Group-6" transform="translate(0.000000, 103.000000)">
				<g id="hclm">
					<path id="Stroke-1" class="st0" d="M0,153l522.8,1.9"/>
					<path id="Fill-48" class="st1" d="M312.3,155.5c-2.7,0.5-5.4,0.7-8.1,0.7c0.9-3.5,4.5-6.2,8.2-6.2c0.9,0,1.8,0.2,2.6-0.1
						c0.8-0.3,1.5-1.3,1.1-2c-0.3-0.5-0.9-0.7-1.4-0.8c-1.8-0.4-3.8-0.2-5.5,0.6c1.4-1.1,2.8-2.3,3.5-4c0.7-1.6,0.7-3.7-0.4-5.1
						c-1.1-1.4-3.5-1.6-4.7-0.3c0.3-2.5-3-4-5.3-3.1c-2.3,1-3.6,3.3-4.7,5.5c0.8-1.6-0.3-3.8-2-4.4c-1.7-0.6-3.7,0.3-4.7,1.8
						c-1,1.5-1,3.5-0.3,5.2c-0.2-1.8-2.2-3.2-4-2.8s-3,2.5-2.4,4.2c0.4,1.2,1.5,2.1,2.4,3.1c0.9,1,1.5,2.4,0.9,3.6
						c-0.3,0.5-0.8,0.9-1.2,1.2c-2.5,1.8-4.9,3.9-7,6.2c-1.6,1.7-3.2,3.7-3.2,6c-0.1,2.7,2,5,4.4,6.1c2.4,1.1,5.2,1.2,7.8,1.3
						c14.9,0.4,29.9-0.1,44.8-1.5c4.8-0.5,10-1.3,13.2-4.9c2.8-3.3,3-8.6,0.3-12.1c-2.7-3.5-7.4-4.8-11.8-4.4
						c-4.4,0.4-8.5,2.1-12.5,3.7c-4.1,1.6-8.3,3.1-12.7,2.9"/>
					<path id="Stroke-50" class="st2" d="M304.2,157.2c0.9-3.5,4.5-6.2,8.2-6.2c0.9,0,1.8,0.2,2.6-0.1c0.8-0.3,1.5-1.3,1.1-2
						c-0.3-0.5-0.9-0.7-1.4-0.8c-1-0.2-2.2-0.3-3.2-0.1c-0.7,0.1-1.9,0.2-2.5,0.6c0.8-0.6,1.5-0.9,2.1-1.6c0.6-0.7,1.2-1.4,1.6-2.3
						c0.7-1.6,0.7-3.7-0.4-5.1c-0.8-0.9-2.6-1.7-3.6-0.9c-0.3,0.2-0.6,0.6-0.8,0.9c-0.5,0.7-2.8,3.5-3.3,4.3
						c0.4-0.6,2.6-3.2,2.8-3.9c1.1-2.9-2.7-4.7-5.1-3.7c-1.6,0.7-2.6,2-3.5,3.4c-1,1.6-1,1.8-1.4,3.6c0.5-2.3,1.1-4.8-1.9-5.7
						c-1.7-0.6-3.7,0.3-4.7,1.8c-0.7,1-1,2.5-0.6,3.7c0.2,0.7,0.7,1.3,0.9,2c-0.8-1.8-2.2-3.8-4.5-3.3c-1.8,0.4-3,2.5-2.4,4.2
						c0.4,1.2,1.5,2.1,2.4,3.1c0.9,1,1.5,2.4,0.9,3.6c-0.3,0.5-0.8,0.9-1.2,1.2c-2.5,1.8-4.9,3.9-7,6.2c-1.6,1.7-3.2,3.7-3.2,6
						c-0.1,2.7,2,5,4.4,6.1c2.4,1.1,5.2,1.2,7.8,1.3c14.9,0.4,29.9-0.1,44.8-1.5c4.8-0.5,10-1.3,13.2-4.9c2.8-3.3,3-8.6,0.3-12.1
						c-2.7-3.5-7.4-4.8-11.8-4.4c-4.4,0.4-8.5,2.1-12.5,3.7c-4.1,1.6-8.3,3.1-12.7,2.9C309.5,157.1,306.9,157.3,304.2,157.2z"/>
					<path id="Fill-52" class="st3" d="M144,146c4.1,2.2,15.5,7.5,19.6,9.7c0.4,0.2,0.7,0.4,1,0.7c0.3,0.3,0.4,0.8,0.4,1.2
						c0.6,2.9,1.1,5.7,1,8.6s-1.1,5.9-3.1,7.9c-5.4-1.8-18-7.3-22.8-10.3"/>
					<path id="Stroke-54" class="st2" d="M144,146c4.1,2.2,15.5,7.5,19.6,9.7c0.4,0.2,0.7,0.4,1,0.7c0.3,0.3,0.4,0.8,0.4,1.2
						c0.6,2.9,1.1,5.7,1,8.6s-1.1,5.9-3.1,7.9c-5.4-1.8-18-7.3-22.8-10.3"/>
					<path id="Fill-56" d="M154,169.9c0.2,3.2,1.5,6.2,3.6,8.7c0.2,0.2,0.4,0.5,0.7,0.5c0.3,0.1,0.6-0.1,0.9-0.3
						c2.6-1.6,4.7-3.9,6.5-6.4c6.7-9.3,8.5-13.2,8.3-24.6c-0.1-3.8-2.7-6.4-6.2-3.5c-1.1,0.9-1.8,2.3-2.5,3.5
						c-1.5,2.7-3.1,5.5-2.7,8.7c0.4,3.2,0.2,5-1.8,7.9c-1.6,2.3-3.3,4.7-5.6,6.2c-0.2,0.1-0.6,0-0.5-0.1L154,169.9z"/>
					<path id="Fill-58" class="st4" d="M87.4,150.6c2.6,2,6.4,0.6,9.4-0.9c7.7-3.8,15.8-7.2,24.2-8.8s17.4-1.4,25.4,2
						c2.5,1,4.9,2.5,6.3,4.8c2,3.4,1,7.9-1.4,11c-2.4,3.1-6.4,4.4-9.4,6.8c-8.9,7.1-21,9.3-32.6,11.3c-2.1,0.4-4.2,0.8-6.3,0.6
						c-4.3-0.4-7.9-3.2-11.2-5.9c-1.8-1.5-3.7-3-4.8-5.1c-1.1-2.1-1.1-4.6-1.1-7c0-3.4,0-6.8,1.1-9.9L87.4,150.6z"/>
					<path id="Stroke-60" class="st5" d="M169.3,16c0.1-0.2,0.5,0,0.3,0.2c-0.1,0.2-0.4,0.2-0.7,0.1c-3.9-1.8-6.7-6-6.9-10.3"/>
					<path id="Stroke-62" class="st5" d="M170.9,0c-2.8,2-4.3,5.6-3.8,9c0.3,2.2,1,4.1,2.1,6"/>
					<path id="Fill-64" class="st3" d="M216.9,88.4c-4.1,0.3-8.2,1.2-12,2.7c-2.3,0.9-4.7,2.1-6.4,3.9c-1.7,1.9-2.7,4.5-2,7
						c0.4,1.4,1.2,2.5,1.8,3.8c0.7,1.6,1,3.6,0.3,5.2s-2.3,3-4.1,3c-1.8,0-3.5-1.7-3.3-3.5c-4.2,2.8-8.4,5.7-13.3,6.9
						c-4.9,1.2-10.6,0.4-14-3.2c-0.1,0.5-0.2,0.9-0.4,1.4c-1,0.3-1.9-0.5-2.7-1.2c-3.9-4-7.9-8-11.8-12c-2-2-4.2-4.1-7-4.1
						c-2.2,0-4.1,1.3-5.8,2.5c-1.4-1.8-3.3-3.1-5-4.7c-1.7-1.5-3.2-3.6-3.2-5.8c4-1.4,6.5-5.4,8.6-9.1c4.2-7.3,8.8-14.5,14.7-20.6
						c5.9-6.1,13.2-11,21.4-12.9c4.3-1,9.6-0.8,12.3,2.7c1.6,2.1,1.8,5,1.3,7.6c-0.4,2.1-1.2,4.2-0.8,6.3c2.5,0.7,5.1-0.6,7.2-2.1
						c2.1-1.5,4-3.4,6.4-4.3c3.2-1.2,6.8-0.4,9.7,1.3c2.9,1.7,5.2,4.3,7.3,7c1.7,2.2,3.2,4.5,4.1,7.1c1.7,5.3,0,11.5-4.3,15.2
						L216.9,88.4z"/>
					<path id="Fill-66" d="M135.8,99.2c4.1,3.5,1.4,8.8-0.3,12.9c-2.4,6.1-5.5,12.3-10.2,16.9c-8.6,8.2-14.4,19-23,27.2
						c-4.6,4.3-9.9,7.8-15.5,10.9c-2.3,1.3-4.8,2.5-7.5,2.5c-11.2,0.1-6.6-21.6-5.4-28c1.4-7.4,3.8-14.8,8.3-20.9
						c1.4-1.9,2.9-3.7,4-5.8c0.9-1.6,1.4-3.4,2.5-4.9c1.2-1.7,2.9-2.9,4.6-4.1c7.1-5.1,14.2-10.1,21.3-15.2c1.8-1.3,3.7-2.6,5.8-3.3
						c2.2-0.7,6.2-0.8,7.2,2c0.2,0.5,0.2,1.1,0.3,1.7c0.5,2.6,2.1,4.9,4.4,6.2c1,0.5,2,0.9,2.9,1.6C135.5,99,135.6,99.1,135.8,99.2"
						/>
					<path id="Fill-68" class="st3" d="M153.5,160.8c-0.2,0-0.4,0.1-0.6,0.1c-0.9,0.2-3.1,0.8-3.3-0.6c-0.2-1.3,1.4-2.5,0.8-3.7
						c-0.4-0.9-1.7-0.9-2.7-0.8c-10.7,0.9-21.8-3.7-28.7-11.9c6.9-2.9,13.9-5.9,20.8-8.8c1,2.7,3.9,4.1,6.6,5.2
						c3.6,1.4,7.2,2.7,10.9,3.8c3.1,0.9,6.5,1.9,8.4,4.5c0.8,1.1,1.2,2.4,1.6,3.8c0.5,1.6,1.1,3.3,1,5c0,1.1-0.6,2.1-1.4,2.9
						c-1,0.9-2.2,1.1-3.5,0.6c-0.2-0.1-0.3-0.1-0.5-0.1c-0.4,0-0.7,0.2-1,0.4c-1.1,0.7-2.7,0.6-3.8-0.2c-0.1-0.1-0.3-0.2-0.4-0.2
						c-0.1,0-0.2,0-0.3,0.1C156.1,161.1,154.8,160.7,153.5,160.8"/>
					<path id="Stroke-70" class="st2" d="M157,160.2c2.3,2.8,6.2-0.4,7.1-2.8c0.4-1.2,0.3-2.6-0.7-3.5"/>
					<path id="Stroke-72" class="st2" d="M153,161c2.5,0.5,5.5-0.1,6.6-2.6c0.5-1.1,0.5-2.3,0.1-3.4"/>
					<path id="Stroke-74" class="st2" d="M139,135c1,2.7,3.9,4.1,6.6,5.2c3.6,1.4,7.2,2.7,10.9,3.8c3.1,0.9,6.5,1.9,8.4,4.5
						c0.8,1.1,1.2,2.4,1.6,3.8c0.9,2.7,1.9,6.6-1,8.4c-1.1,0.7-2.6,0.7-3.6-0.2"/>
					<path id="Stroke-76" class="st2" d="M155.8,155.4c0.2,1.8-0.8,3.8-2.5,4.7c-1.2,0.6-3.5,0.8-4.1-0.7c-0.2-0.5,1-4.2,1.4-4.2
						c-3-0.5-6.1,0.2-9.1-0.1c-2.9-0.3-5.8-0.9-8.6-2c-2.8-1-5.5-2.5-8-4.2"/>
					<path id="Stroke-78" class="st2" d="M155.7,156c0.2,1.8-0.8,3.8-2.5,4.7c-1.2,0.6-3.5,0.8-4.1-0.7c-0.2-0.5,1-4.2,1.4-4.2
						c-3-0.5-6.1,0.2-9.1-0.1c-2.9-0.3-5.8-0.9-8.6-2c-2.8-1-5.5-2.5-8-4.2c-1.1-0.8-6.4-4.8-5.9-6.2c0.1-0.3,3.6-1.3,4.2-1.5
						l5.4-2.3c3.6-1.5,7.2-3.1,10.8-4.6c1,2.7,3.9,4.1,6.6,5.2c3.6,1.4,7.2,2.7,10.9,3.8c3.1,0.9,6.5,1.9,8.4,4.5
						c0.8,1.1,1.2,2.4,1.6,3.8c0.9,2.7,1.9,6.6-1,8.4c-1.1,0.7-2.6,0.7-3.6-0.2"/>
					<path id="Fill-80" d="M139.6,134.6c0-5.8-1.2-11.7-3.3-17.1c-1.6-4.1-4.7-8.5-9.1-8.5c-3.7,0-6.6,3.2-8.4,6.4
						c-4.5,8-5,18.1-1.3,26.4c0.2,0.5,0.4,1,0.8,1.3c0.5,0.4,1.2,0.4,1.8,0.4c3.6-0.2,7-1.8,10.2-3.5c2.8-1.4,5.6-2.8,8.4-4.2"/>
					<path id="Fill-82" class="st6" d="M201,175.4l3.3,1.7l31.5-62.4c0.5-0.9,0.1-2-0.8-2.5c-0.9-0.5-2-0.1-2.5,0.8L201,175.4z"/>
					<path id="Stroke-84" class="st2" d="M201,175.4l3.3,1.7l31.5-62.4c0.5-0.9,0.1-2-0.8-2.5c-0.9-0.5-2-0.1-2.5,0.8L201,175.4z"/>
					<path id="Fill-86" class="st6" d="M201.2,179v-4h-69.4c-1,0-1.8,1.1-1.8,2.1v0c0,1,0.8,1.9,1.8,1.9H201.2z"/>
					<path id="Stroke-88" class="st2" d="M201.2,179v-4h-69.4c-1,0-1.8,1.1-1.8,2.1v0c0,1,0.8,1.9,1.8,1.9H201.2z"/>
					<path id="Fill-90" d="M188,100.9c-1.8,1.2-3.6,1.7-3.9,1.2c-0.4-0.5,0.8-1.9,2.6-3.1c0.6-0.4,1.7-0.9,1.7-0.9l1.1,1.7
						C189.6,99.7,188.6,100.5,188,100.9"/>
					<path id="Stroke-92" class="st5" d="M200,89c2.2,2.1,4,4.6,5.3,7.4"/>
					<path id="Stroke-94" class="st5" d="M170,15.6c1-4.8,4.2-9.2,8.5-11.6"/>
					<path id="Stroke-96" class="st5" d="M191.1,89.5c-3.8-1.2-8.3-0.1-11.1,2.8"/>
					<path id="Stroke-98" class="st2" d="M164,114.1c-0.1,0.5-0.2,0.9-0.4,1.4c-1,0.3-1.9-0.5-2.7-1.2c-3.9-4-7.9-8-11.8-12
						c-2-2-4.2-4.1-7-4.1c-2.2,0-4.1,1.3-5.8,2.5c-1.4-1.8-3.3-3.1-5-4.7c-1.7-1.5-3.2-3.6-3.2-5.8c4-1.4,6.5-5.4,8.6-9.1
						c4.2-7.3,8.8-14.5,14.7-20.6c5.9-6.1,13.2-11,21.4-12.9c4.3-1,9.6-0.8,12.3,2.7c1.6,2.1,1.8,5,1.3,7.6
						c-0.4,2.1-1.2,4.2-0.8,6.3c2.5,0.7,5.1-0.6,7.2-2.1c2.1-1.5,4-3.4,6.4-4.3c3.2-1.2,6.8-0.4,9.7,1.3c2.9,1.7,5.2,4.3,7.3,7
						c1.7,2.2,3.2,4.5,4.1,7.1c1.7,5.3,0,11.5-4.3,15.2l0.9,0.1c-4.1,0.3-8.2,1.2-12,2.7c-2.3,0.9-4.7,2.1-6.4,3.9
						c-1.7,1.9-2.7,4.5-2,7c0.4,1.4,1.2,2.5,1.8,3.8c0.7,1.6,1,3.6,0.3,5.2s-2.3,3-4.1,3c-1.8,0-3.5-1.7-3.3-3.5
						c-4.2,2.8-8.4,5.7-13.3,6.9C173.1,118.5,167.4,117.7,164,114.1c-2.1-2.2-2.9-5.4-5.1-7.3c-0.8-0.7-1.6-1.4-2.1-2.4
						c-0.5-1-0.4-2.3,0.4-2.9"/>
					<path id="Fill-100" class="st7" d="M234.5,57c-4-20.5-18.2-42.9-40.6-44.8c-9.1-0.8-19.6,0.8-28.1,4.3
						c-6.4,2.7-14.1,5.7-16.7,12.9c1.7-1.8,3.7-3.2,6-4.2c-4.2,3.6-7.4,8.4-9.2,13.7c1-2.1,3-3.8,5.3-4.3c-3.3,8-6.6,16.1-9.7,24.2
						c-1.4,3.5-3.2,6.8-4,10.5c-0.4,2.1-0.8,4.2-1.1,6.3c-0.2,1.4,0.2,4.6-0.4,5.7c3-5.1,7.1-8,12.3-10.7c3.8-1.9,7-4.8,9.4-8.3
						c-0.3,1.1-0.5,2.2-0.4,3.3c2.3-3.1,4.5-6.2,6.8-9.4c2.8-3.8,9.6-6.1,14-3.8c3.6,1.8,5.7,6,4.9,10c-0.6,3.1-2.7,6.1-2,9.1
						c5.7,0,11-4.6,11.8-10.2c1.2,2.6-0.1,6-2.8,7.1c5.7,0.9,11.6-4.3,11.3-10.1c0.1,1-0.2,2.1-0.1,3.1c0.1,1.1,0.4,2.3,0.8,3.3
						c0.4,1,1,2,1.6,2.9c0.3,0.4,0.7,0.9,1.1,1.2c0.3,0.3,1.2,0.8,1.3,1.2c0.2,0.4-0.1,0.7-0.2,1.1c-0.1,0.6,0.1,1.4,0.2,2
						c0.2,1.4,0.6,2.8,1,4.1c0.6,1.8,1.3,3.5,2,5.2c0.3,0.8,0.7,1.5,1,2.2c0.1,0.4,1.1,1.6,1.1,1.9c0.3-1.6,0.9-3.6,2-4.8
						c0.8,0.6,0.7,3.5,0.9,4.4c0.4,2.3,1.1,4.8,2.6,6.6c1.5,1.8,3.3,3.5,4.6,5.4c1.8,2.7,2.8,11.8,5.3,5.2c1.3-3.4,3.3-9.9,1.9-13.6
						c1.1,3,1.6,6.1,1.5,9.3c5-12.4,6.7-26.1,4.9-39.4C234.8,58.8,234.6,57.9,234.5,57"/>
					<path id="Stroke-102" class="st2" d="M234.5,57c-4-20.5-18.2-42.9-40.6-44.8c-9.1-0.8-19.6,0.8-28.1,4.3
						c-6.4,2.7-14.1,5.7-16.7,12.9c1.7-1.8,3.7-3.2,6-4.2c-4.2,3.6-7.4,8.4-9.2,13.7c1-2.1,3-3.8,5.3-4.3c-3.3,8-6.6,16.1-9.7,24.2
						c-1.4,3.5-3.2,6.8-4,10.5c-0.4,2.1-0.8,4.2-1.1,6.3c-0.2,1.4,0.2,4.6-0.4,5.7c3-5.1,7.1-8,12.3-10.7c3.8-1.9,7-4.8,9.4-8.3
						c-0.3,1.1-0.5,2.2-0.4,3.3c2.3-3.1,4.5-6.2,6.8-9.4c2.8-3.8,9.6-6.1,14-3.8c3.6,1.8,5.7,6,4.9,10c-0.6,3.1-2.7,6.1-2,9.1
						c5.7,0,11-4.6,11.8-10.2c1.2,2.6-0.1,6-2.8,7.1c5.7,0.9,11.6-4.3,11.3-10.1c0.1,1-0.2,2.1-0.1,3.1c0.1,1.1,0.4,2.3,0.8,3.3
						c0.4,1,1,2,1.6,2.9c0.3,0.4,0.7,0.9,1.1,1.2c0.3,0.3,1.2,0.8,1.3,1.2c0.2,0.4-0.1,0.7-0.2,1.1c-0.1,0.6,0.1,1.4,0.2,2
						c0.2,1.4,0.6,2.8,1,4.1c0.6,1.8,1.3,3.5,2,5.2c0.3,0.8,0.7,1.5,1,2.2c0.1,0.4,1.1,1.6,1.1,1.9c0.3-1.6,0.9-3.6,2-4.8
						c0.8,0.6,0.7,3.5,0.9,4.4c0.4,2.3,1.1,4.8,2.6,6.6c1.5,1.8,3.3,3.5,4.6,5.4c1.8,2.7,2.8,11.8,5.3,5.2c1.3-3.4,3.3-9.9,1.9-13.6
						c1.1,3,1.6,6.1,1.5,9.3c5-12.4,6.7-26.1,4.9-39.4C234.8,58.8,234.6,57.9,234.5,57z"/>
					<path id="Fill-104" class="st3" d="M149.9,157.4c-0.2,0-0.4,0.1-0.7,0.1c-1,0.2-3.4,0.8-3.7-0.7c-0.3-1.4,1.5-2.8,0.9-4.1
						c-0.5-1-1.8-1-2.9-0.9c-11.8,1-24-4-31.6-13.1c7.6-3.2,15.2-6.5,22.9-9.7c1.1,3,4.3,4.6,7.3,5.8c3.9,1.6,7.9,3,12,4.2
						c3.4,1,7.2,2.1,9.3,5c0.9,1.2,1.4,2.7,1.8,4.1c0.6,1.8,1.2,3.6,1.1,5.5c0,1.3-0.6,2.3-1.6,3.2c-1.2,1-2.4,1.2-3.8,0.6
						c-0.2-0.1-0.3-0.2-0.5-0.2c-0.4,0-0.8,0.2-1.1,0.5c-1.3,0.7-3,0.7-4.1-0.2c-0.1-0.1-0.3-0.2-0.5-0.2c-0.1,0-0.2,0-0.3,0.1
						C152.8,157.7,151.4,157.3,149.9,157.4"/>
					<path id="Stroke-106" class="st2" d="M155,156.9c2.6,3.1,6.9-0.4,7.8-3.1c0.5-1.3,0.3-2.9-0.7-3.8"/>
					<path id="Stroke-108" class="st2" d="M150,157.6c2.8,0.6,6-0.1,7.3-2.8c0.5-1.2,0.6-2.6,0.1-3.8"/>
					<path id="Stroke-110" class="st2" d="M135,129c1.1,3,4.3,4.6,7.3,5.8c3.9,1.6,7.9,3,12,4.2c3.4,1,7.2,2.1,9.3,5
						c0.9,1.2,1.4,2.7,1.8,4.1c0.9,2.9,2.1,7.2-1.1,9.3c-1.2,0.8-2.9,0.7-3.9-0.3"/>
					<path id="Stroke-112" class="st2" d="M152.9,152.1c0.2,2-0.9,4.2-2.7,5.1c-1.3,0.7-3.8,0.9-4.5-0.8c-0.2-0.6,1.1-4.7,1.6-4.6
						c-3.3-0.5-6.7,0.2-10-0.1c-3.2-0.3-6.4-1-9.4-2.1c-3.1-1.1-6.1-2.7-8.8-4.6"/>
					<path id="Stroke-114" class="st2" d="M153.4,152.1c0.2,2-0.9,4.2-2.7,5.1c-1.3,0.7-3.8,0.9-4.5-0.8c-0.2-0.6,1.1-4.7,1.6-4.6
						c-3.3-0.5-6.7,0.2-10-0.1c-3.2-0.3-6.4-1-9.4-2.1c-3.1-1.1-6.1-2.7-8.8-4.6c-1.2-0.9-7-5.3-6.5-6.8c0.1-0.3,3.9-1.4,4.6-1.7
						c2-0.8,4-1.7,6-2.5c4-1.7,8-3.4,11.9-5c1.1,3,4.3,4.6,7.3,5.8c3.9,1.6,7.9,3,12,4.2c3.4,1,7.2,2.1,9.3,5
						c0.9,1.2,1.4,2.7,1.8,4.1c0.9,2.9,2.1,7.2-1.1,9.3c-1.2,0.8-2.9,0.7-3.9-0.3"/>
					<path id="Fill-116" d="M135.1,129.1c0-6.4-1.3-12.8-3.7-18.8c-1.8-4.5-5.2-9.3-10-9.3c-4.1,0-7.3,3.5-9.2,7
						c-4.9,8.8-5.5,19.9-1.4,29.1c0.2,0.5,0.5,1,0.9,1.4c0.6,0.4,1.3,0.4,2,0.4c4-0.2,7.7-2,11.2-3.8c3.1-1.5,6.2-3.1,9.3-4.6"/>
					<path id="Fill-118" class="st3" d="M133.2,152c4.3,2.4,16.5,8,20.9,10.3c0.4,0.2,0.8,0.4,1,0.8c0.3,0.4,0.4,0.8,0.5,1.3
						c0.6,3,1.2,6.1,1,9.2c-0.2,3.1-1.2,6.2-3.3,8.4c-5.8-1.9-19.1-7.8-24.3-11"/>
					<path id="Stroke-120" class="st2" d="M133.2,152c4.3,2.4,16.5,8,20.9,10.3c0.4,0.2,0.8,0.4,1,0.8c0.3,0.4,0.4,0.8,0.5,1.3
						c0.6,3,1.2,6.1,1,9.2c-0.2,3.1-1.2,6.2-3.3,8.4c-5.8-1.9-19.1-7.8-24.3-11"/>
					<path id="Fill-122" d="M144,177.6c0.3,3.4,1.6,6.6,3.8,9.2c0.2,0.2,0.5,0.5,0.8,0.6c0.3,0.1,0.7-0.1,1-0.3
						c2.8-1.7,5-4.2,6.9-6.8c7.1-9.9,9-14,8.8-26.2c-0.1-4-2.9-6.8-6.6-3.7c-1.2,1-2,2.4-2.7,3.8c-1.6,2.9-3.3,5.9-2.9,9.3
						c0.4,3.4,0.2,5.3-1.9,8.4c-1.7,2.5-3.5,5-6,6.6c-0.2,0.1-0.7,0-0.5-0.2L144,177.6z"/>
					<path id="Fill-124" class="st4" d="M73.5,157.3c2.8,2.2,6.8,0.6,10-0.9c8.2-4,16.8-7.6,25.8-9.3s18.6-1.4,27,2.1
						c2.6,1.1,5.2,2.6,6.7,5.1c2.1,3.6,1.1,8.4-1.5,11.7c-2.5,3.3-6.8,4.7-10,7.3c-9.5,7.6-22.4,9.9-34.7,12
						c-2.2,0.4-4.4,0.8-6.7,0.6c-4.5-0.5-8.4-3.4-11.9-6.2c-2-1.6-4-3.2-5.1-5.4c-1.1-2.3-1.2-4.9-1.2-7.5c0-3.6,0-7.2,1.2-10.6
						L73.5,157.3z"/>
					<path id="Fill-126" class="st8" d="M412.1,154.1c-1.2,1-2.3,2.4-2.1,4c0.1,1,0.8,1.9,1.4,2.6c7.1,8.5,17.8,13.8,28.9,14.3
						c2.2,0.1,4.6,0,6.5-1.2c2.1-1.3,3.4-3.8,3.5-6.4c0.1-2.5-0.9-5-2.3-7c-4.3-5.9-12-7.8-19.1-9.3
						C428.8,151.1,416.8,150.1,412.1,154.1"/>
					<path id="Stroke-128" class="st2" d="M412.1,154.1c-1.2,1-2.3,2.4-2.1,4c0.1,1,0.8,1.9,1.4,2.6c7.1,8.5,17.8,13.8,28.9,14.3
						c2.2,0.1,4.6,0,6.5-1.2c2.1-1.3,3.4-3.8,3.5-6.4c0.1-2.5-0.9-5-2.3-7c-4.3-5.9-12-7.8-19.1-9.3
						C428.8,151.1,416.8,150.1,412.1,154.1z"/>
					<path id="Fill-130" class="st8" d="M413.1,163.1c-1.2,1-2.3,2.4-2.1,4c0.1,1,0.8,1.9,1.4,2.6c7.1,8.5,17.8,13.8,28.9,14.3
						c2.2,0.1,4.6,0,6.5-1.2c2.1-1.3,3.4-3.8,3.5-6.4c0.1-2.5-0.9-5-2.3-7c-4.3-5.9-12-7.8-19.1-9.3
						C429.8,160.1,417.8,159.1,413.1,163.1"/>
					<path id="Stroke-132" class="st2" d="M413.1,163.1c-1.2,1-2.3,2.4-2.1,4c0.1,1,0.8,1.9,1.4,2.6c7.1,8.5,17.8,13.8,28.9,14.3
						c2.2,0.1,4.6,0,6.5-1.2c2.1-1.3,3.4-3.8,3.5-6.4c0.1-2.5-0.9-5-2.3-7c-4.3-5.9-12-7.8-19.1-9.3
						C429.8,160.1,417.8,159.1,413.1,163.1z"/>
					<path id="Fill-134" d="M305.9,51c-5.6,0.3-11.1,1.6-16.3,3.6c-5.3,2.1-10.4,5.2-13.8,9.7c-3.4,4.6-4.8,10.9-2.6,16.2
						c1,2.5,2.9,4.8,2.8,7.5c-0.1,2.7-2.2,5-4.4,6.6c-2.2,1.6-4.8,2.8-6.7,4.8c-3.4,3.6-3.8,9.7-0.9,13.7c1.3,1.8,3.1,3.1,4.4,4.9
						c3,4,3,9.6,1.3,14.3c-1.1,3-2.9,5.9-2.6,9c0.9,10.3,14.8,4.9,18,12.3c0.5,1.2,0.6,2.6,1.3,3.6c0.6,0.8,1.5,1.2,2.4,1.6
						c7.3,2.7,15.9-1.9,22.9,1.5c1.8,0.9,3.4,2.3,5.4,2.5c3.3,0.4,6-2.3,8.6-4.3c5.9-4.7,13.6-6.9,21.1-6"/>
					<path id="Fill-136" class="st1" d="M334.4,141.7c4.3-2,9.7-2.1,13.8-4.7c4.7-3,7.1-8.8,6.5-14.3s-3.8-10.5-8.2-13.9
						c-3-2.3-6.6-4-8.4-7.2c-3.4-6.1,1.3-13.5,1.3-20.4c0-5.2-2.8-10.2-7.2-12.9c-5.3-3.3-10.9-2.7-15.7,0.8
						c-5.4,4.1-10.9,7.4-15.1,12.8c-0.1,1.5-0.2,3-0.3,4.5c-0.3,3.7-1.2,5.8-2.9,9c-0.7,1.4-1.6,2.8-2.9,3.5
						c-1.6,0.8-3.5,0.5-5.2-0.1c-2.7-1-4.5-2.2-7.4-1c-3.8,1.5-7.4,6.6-2.6,9.3c1.3,0.7,2.8,0.8,4.2,0.3c-1.7,2.4-4,4.6-5,7.4
						c-1.4,3.9-2.4,8.1-3,12.2c-0.6,4-0.1,8.7,3.9,10.7c0.9,0.4,1.8,0.7,2.7,0.9l-0.6,0.2c-0.3,3.9,2.8,7.2,5.9,9.5
						c8.4,6.3,18.8,9.7,29.3,9.6c1.4,3,2.8,6,4.2,9c-0.2,1.4,1.8,1.6,3.2,1.4c6.1-0.8,10.5-6.2,14.2-11.2c-4.1-2.5-12.3-9.7-7-13.8
						C332.7,142.6,333.5,142.1,334.4,141.7"/>
					<path id="Fill-138" d="M300.3,107.1c0,2.2-0.5,3.9-1.2,3.9s-1.2-1.8-1.2-3.9s-0.2-3.1,0.5-3.1c0.2,0,1.6,1.3,1.8,1.5
						C300.7,106.1,300.3,105.5,300.3,107.1"/>
					<path id="Stroke-140" class="st2" d="M282.2,138.6c-0.3,3.9,2.8,7.2,5.9,9.5c8.4,6.3,18.8,9.7,29.3,9.6c1.4,3,2.8,6,4.2,9
						c-0.2,1.4,1.8,1.6,3.2,1.4c6.1-0.8,10.5-6.2,14.2-11.2c-4.1-2.5-12.3-9.7-7-13.8c0.8-0.6,1.6-1,2.4-1.4c4.3-2,9.7-2.1,13.8-4.7
						c4.7-3,7.1-8.8,6.5-14.3c-0.5-5.5-3.8-10.5-8.2-13.9c-3-2.3-6.6-4-8.4-7.2c-3.4-6.1,1.3-13.5,1.3-20.4c0-5.2-2.8-10.2-7.2-12.9
						c-5.3-3.3-10.9-2.7-15.7,0.8c-5.4,4.1-10.9,7.4-15.1,12.8c-0.1,1.5-0.2,3-0.3,4.5c-0.3,3.7-1.2,5.8-2.9,9
						c-0.7,1.4-1.6,2.8-2.9,3.5c-1.6,0.8-3.5,0.5-5.2-0.1c-2.7-1-4.5-2.2-7.4-1c-3.8,1.5-7.4,6.6-2.6,9.3c1.3,0.7,2.8,0.8,4.2,0.3
						c-1.7,2.4-4,4.6-5,7.4c-1.4,3.9-2.4,8.1-3,12.2c-0.6,4-0.1,8.7,3.9,10.7c1.4,0.7,3.1,1.6,4.7,0.9c1.4-0.6,2.6-1.9,4.3-1.8
						c1.4,0.1,2.6,1.2,4,1.1c1.3-0.1,2.2-1.3,3.4-1.7c0.9-0.4,2-0.3,3-0.4c1-0.1,2.1-0.4,2.7-1.2c1.4-1.9-2.7-3.4-0.7-5
						c0.6-0.5,1.2-1,1.8-1.4"/>
					<path id="Fill-142" d="M300.7,128c0.4,0,0.7,0.3,0.7,0.7c0,0.4-0.3,0.7-0.7,0.7c-0.4,0-0.7-0.3-0.7-0.7
						C300,128.3,300.3,128,300.7,128"/>
					<path id="Stroke-144" class="st5" d="M306,102c2.9,1.5,4.5,5.2,3.5,8.3"/>
					<path id="Stroke-146" class="st5" d="M303,92c2.3,2.2,5.4,3.6,8.6,3.8"/>
					<path id="Stroke-148" class="st2" d="M302,127c0.5,1.4,1.5,2.6,2.8,3.3"/>
					<path id="Fill-150" class="st9" d="M329,155c10.8-7.2,21.1-15.2,31.4-23.2c6.8-5.3,15.3-9.5,24.2-8.8c3.1,0.2,6.1,1.3,8.4,3.4
						c2.9,2.8,3.1,6.2,4.6,9.7c1.4,3.2,3.1,5.7,3.9,9.2c2.6,11.7-3.1,18.1-13.1,23.1c-11.5,5.8-23.9,10.6-36.8,11.7
						c-4.3,0.4-8.6,1.5-13,1.4c-4.4-0.1-9-1.6-11.5-5.2c-1.7-2.5-2.1-5.6-2.1-8.5c0-3.1,0.7-6.5,2.8-8.8c0.7-0.8,1.5-1.4,1.8-2.4
						c0.3-1-0.4-2.3-1.4-2.1"/>
					<path id="Stroke-152" class="st2" d="M329,155c10.8-7.2,21.1-15.2,31.4-23.2c6.8-5.3,15.3-9.5,24.2-8.8
						c3.1,0.2,6.1,1.3,8.4,3.4c2.9,2.8,3.1,6.2,4.6,9.7c1.4,3.2,3.1,5.7,3.9,9.2c2.6,11.7-3.1,18.1-13.1,23.1
						c-11.5,5.8-23.9,10.6-36.8,11.7c-4.3,0.4-8.6,1.5-13,1.4c-4.4-0.1-9-1.6-11.5-5.2c-1.7-2.5-2.1-5.6-2.1-8.5
						c0-3.1,0.7-6.5,2.8-8.8c0.7-0.8,1.5-1.4,1.8-2.4c0.3-1-0.4-2.3-1.4-2.1"/>
					<path id="Fill-154" d="M301,81.4c-2.8,0.6-5.6,1.2-8.5,1c-2.9-0.2-5.8-1.3-7.6-3.5c-2.9-3.7-2-9.1-0.3-13.4
						c1.6-3.9,3.7-7.6,6.9-10.2c9.9-8.3,25.6-3.2,34.9,3.7c1.3,0.9,2.6,2.1,2.9,3.7c3.7-2.2,8.4-2.7,12.4-1.4c2.9,1,3.4,3.7,5.4,4.8
						c2.9,1.6,6.3,0.8,9.2,1.8c3.4,1.1,6.7,4,8.8,6.8c2.8,3.7,4.1,8.8,2.5,13.2c-0.5,1.5-1.4,2.9-1.5,4.4c-0.3,2.5,1.2,4.8,2.9,6.6
						c2.5,2.8,5.5,5.2,7.5,8.3c2.1,3.1,3,7.4,1.1,10.5c-1,1.6-2.5,2.7-3.8,4.1c-1.2,1.4-2.1,3.4-1.4,5.1c0.8,2,3.3,2.5,5.1,3.7
						c3.7,2.3,4.6,7.5,3.4,11.7c-4,13.7-19,28.9-33.7,18.1c-1.5-1.1-2.8-2.5-4-3.9c-0.4-0.5-0.9-1-1.5-1.2c-0.6-0.1-1.2,0.2-1.8,0.5
						c-6.7,3.7-19.2,4.4-21-5.3c-0.7-3.8,0.2-7.9,2-11.3c1.8-3.5,4.4-6.4,7.3-9.1c-0.2,2.8,1.9,5.5,4.6,6.2c2.7,0.7,5.7-0.3,7.6-2.4
						c1.9-2,2.8-4.9,2.8-7.7c0-5.2-3.3-6-7.6-6.6c-3.9-0.6-6.6-2.2-7.3-6.4c-0.5-2.8,0.1-5.7,0.5-8.6c0.4-2.9,0.6-5.9-0.6-8.5
						c-1-2-2.7-3.6-3.9-5.5c-3.2-4.9-2.1-12.1-0.6-17.4c-3.6,2.6-7.2,5.3-11.2,7.2c-4,1.9-8.5,3-12.9,2.4L301,81.4z"/>
					<path id="Fill-156" class="st1" d="M321.3,165.5c-2.7,0.5-5.4,0.7-8.1,0.7c0.9-3.5,4.5-6.2,8.2-6.2c0.9,0,1.8,0.2,2.6-0.1
						c0.8-0.3,1.5-1.3,1.1-2c-0.3-0.5-0.9-0.7-1.4-0.8c-1.8-0.4-3.8-0.2-5.5,0.6c1.4-1.1,2.8-2.3,3.5-4c0.7-1.6,0.7-3.7-0.4-5.1
						c-1.1-1.4-3.5-1.6-4.7-0.3c0.3-2.5-3-4-5.3-3.1c-2.3,1-3.6,3.3-4.7,5.5c0.8-1.6-0.3-3.8-2-4.4c-1.7-0.6-3.7,0.3-4.7,1.8
						c-1,1.5-1,3.5-0.3,5.2c-0.2-1.8-2.2-3.2-4-2.8s-3,2.5-2.4,4.2c0.4,1.2,1.5,2.1,2.4,3.1c0.9,1,1.5,2.4,0.9,3.6
						c-0.3,0.5-0.8,0.9-1.2,1.2c-2.5,1.8-4.9,3.9-7,6.2c-1.6,1.7-3.2,3.7-3.2,6c-0.1,2.7,2,5,4.4,6.1c2.4,1.1,5.2,1.2,7.8,1.3
						c14.9,0.4,29.9-0.1,44.8-1.5c4.8-0.5,10-1.3,13.2-4.9c2.8-3.3,3-8.6,0.3-12.1c-2.7-3.5-7.4-4.8-11.8-4.4
						c-4.4,0.4-8.5,2.1-12.5,3.7c-4.1,1.6-8.3,3.1-12.7,2.9"/>
					<path id="Stroke-158" class="st2" d="M313.2,167.2c0.9-3.5,4.5-6.2,8.2-6.2c0.9,0,1.8,0.2,2.6-0.1c0.8-0.3,1.5-1.3,1.1-2
						c-0.3-0.5-0.9-0.7-1.4-0.8c-1-0.2-2.2-0.3-3.2-0.1c-0.7,0.1-1.9,0.2-2.5,0.6c0.8-0.6,1.5-0.9,2.1-1.6c0.6-0.7,1.2-1.4,1.6-2.3
						c0.7-1.6,0.7-3.7-0.4-5.1c-0.8-0.9-2.6-1.7-3.6-0.9c-0.3,0.2-0.6,0.6-0.8,0.9c-0.5,0.7-2.8,3.5-3.3,4.3
						c0.4-0.6,2.6-3.2,2.8-3.9c1.1-2.9-2.7-4.7-5.1-3.7c-1.6,0.7-2.6,2-3.5,3.4c-1,1.6-1,1.8-1.4,3.6c0.5-2.3,1.1-4.8-1.9-5.7
						c-1.7-0.6-3.7,0.3-4.7,1.8c-0.7,1-1,2.5-0.6,3.7c0.2,0.7,0.7,1.3,0.9,2c-0.8-1.8-2.2-3.8-4.5-3.3c-1.8,0.4-3,2.5-2.4,4.2
						c0.4,1.2,1.5,2.1,2.4,3.1c0.9,1,1.5,2.4,0.9,3.6c-0.3,0.5-0.8,0.9-1.2,1.2c-2.5,1.8-4.9,3.9-7,6.2c-1.6,1.7-3.2,3.7-3.2,6
						c-0.1,2.7,2,5,4.4,6.1c2.4,1.1,5.2,1.2,7.8,1.3c14.9,0.4,29.9-0.1,44.8-1.5c4.8-0.5,10-1.3,13.2-4.9c2.8-3.3,3-8.6,0.3-12.1
						c-2.7-3.5-7.4-4.8-11.8-4.4c-4.4,0.4-8.5,2.1-12.5,3.7c-4.1,1.6-8.3,3.1-12.7,2.9C318.5,167.1,315.9,167.3,313.2,167.2z"/>
					<path id="Fill-160" class="st10" d="M392.1,128.7c-1.4-2.2-2.9-3.8-5.3-5c4.9-2.8,10.7-3.9,16.3-3.7c5.9,0.2,12.5,2.5,17.4,5.7
						c8.3,5.4,15.1,17.5,11.2,27.7c-2.3,6-8.1,10.5-14.4,11.7c5-0.9,10.5-1.1,12.8,3.7c2.2,4.7,0.1,10.5-4.3,13.4
						c-2.7,1.8-6,2.2-9.3,2.4c-8.6,0.6-21.5,0.3-29.2-4.4c-6.2-3.8-8.5-11.3-6.8-18.1c0.8-3.4,2.6-6.6,5-9c2.6-2.7,6.2-3.3,7.5-7.2
						c1-3.3,0.9-6.9,0.8-10.4c-0.1-2.1-0.2-4.4-1.3-6.2C392.3,129.1,392.2,128.9,392.1,128.7"/>
					<path id="Stroke-162" class="st2" d="M392.1,128.7c-1.4-2.2-2.9-3.8-5.3-5c4.9-2.8,10.7-3.9,16.3-3.7
						c5.9,0.2,12.5,2.5,17.4,5.7c8.3,5.4,15.1,17.5,11.2,27.7c-2.3,6-8.1,10.5-14.4,11.7c5-0.9,10.5-1.1,12.8,3.7
						c2.2,4.7,0.1,10.5-4.3,13.4c-2.7,1.8-6,2.2-9.3,2.4c-8.6,0.6-21.5,0.3-29.2-4.4c-6.2-3.8-8.5-11.3-6.8-18.1
						c0.8-3.4,2.6-6.6,5-9c2.6-2.7,6.2-3.3,7.5-7.2c1-3.3,0.9-6.9,0.8-10.4c-0.1-2.1-0.2-4.4-1.3-6.2
						C392.3,129.1,392.2,128.9,392.1,128.7z"/>
				</g>
			</g>
		</g>
	</g>
</g>
</svg>
