<?xml version="1.0" encoding="UTF-8" standalone="no"?>
<svg width="64px" height="30px" viewBox="0 0 64 30" version="1.1" xmlns="http://www.w3.org/2000/svg" xmlns:xlink="http://www.w3.org/1999/xlink">
    <!-- Generator: Sketch 41.2 (35397) - http://www.bohemiancoding.com/sketch -->
    <title>logo</title>
    <desc>Created with Sketch.</desc>
    <defs>
        <polygon id="path-1" points="4.95308741 0.142647059 0.0110279176 0.142647059 0.0110279176 4.74355882 4.95308741 4.74355882 4.95308741 0.142647059"></polygon>
    </defs>
    <g id="v1" stroke="none" stroke-width="1" fill="none" fill-rule="evenodd">
        <g id="song" transform="translate(-651.000000, -30.000000)">
            <g id="logo" transform="translate(651.000000, 30.000000)">
                <path d="M10.0069638,26.3157059 C9.98045584,26.2792353 9.94208513,26.2615882 9.88731167,26.2737941 C9.73046041,26.3083529 9.4595222,27.0723235 9.35759085,27.2221765 C8.64216751,28.2733529 6.92559085,28.2385 5.89089977,27.7492353 C4.73684943,27.2036471 3.92462059,26.0767353 3.51367323,24.8899706 C3.26309199,24.1661471 3.12410801,23.3787941 3.04473043,22.6176176 C2.87191579,20.9612941 2.90677162,19.2177647 3.34364119,17.5839412 C3.73013089,16.1390882 4.40220412,14.4296765 6.02109657,14.0582059 C6.94668009,13.8458529 7.98620412,14.1743824 8.58915149,14.9107059 C8.94107826,15.3405588 9.1398151,15.8857059 9.19561373,16.4392353 C9.25727048,17.0518824 9.1420119,17.6949706 8.79799359,18.2048235 C8.45397529,18.7145294 7.86552677,19.0712941 7.25232769,19.0599706 C7.49382883,19.0645294 7.5776,18.3332059 7.57349931,18.1901176 C7.5632476,17.8326176 7.42514233,17.4511471 7.16416293,17.201 C6.68599359,16.7429118 5.84535286,16.7314412 5.36864805,17.1911471 C4.99211716,17.5543824 4.8752476,18.146 5.0341492,18.6455588 C5.1930508,19.1449706 5.60136201,19.5449706 6.08304622,19.7473235 C6.56473043,19.9496765 7.11173272,19.9657059 7.62124302,19.8512941 C9.43638261,19.4436471 10.3442453,17.4471765 9.8485016,15.7298235 C9.3908357,14.1448235 7.88983799,13.0485 6.23945812,13.1867353 C2.19090892,13.526 0.202808238,17.7102647 0.0929684211,21.3457059 C-0.00398352403,24.5505588 1.71845126,28.5999706 5.00866636,29.5911471 C6.43658398,30.0212941 7.96057483,29.7383529 9.07464348,28.7026176 C9.56438261,28.2473235 9.9265611,27.6262941 10.0220485,26.9580588 C10.0375725,26.8492353 10.1053803,26.4514412 10.0069638,26.3157059" id="Fill-3" fill="#FFFFFF"></path>
                <path d="M14.1536805,14.3620294 C13.9637309,15.5777647 13.8235753,16.801 13.7210581,18.0271765 C13.6615982,18.7382059 13.6150261,19.4502647 13.5788522,20.1629118 C13.5608384,20.5170294 13.5460467,20.8712941 13.532573,21.2257059 C13.5253968,21.4162941 13.609168,21.9282059 13.5126554,22.0704118 C13.7477126,21.7240882 14.0209941,21.3948235 14.3705776,21.166 C14.7203076,20.9370294 15.1562984,20.8170294 15.5625593,20.9130588 C16.3039048,21.0882059 16.7139735,21.8895294 16.8848842,22.6346765 C17.3930764,24.8523235 16.7885181,27.1226176 17.801827,29.2379118 C16.8567652,29.1470294 15.883438,29.3852647 15.0861474,29.9027647 C15.0350352,29.936 14.963859,29.9692353 14.9191908,29.9277647 C14.8913648,29.9018824 14.8899002,29.8589412 14.8915112,29.8208529 C14.9023487,29.5754118 14.9925638,29.3585 15.0338636,29.1204118 C15.1538087,28.4289412 15.2353831,27.7307059 15.2784403,27.0299706 C15.3436119,25.9714412 15.3210581,24.9073235 15.210486,23.8526176 C15.166843,23.4377647 15.1946691,22.9067353 14.8718865,22.5964412 C14.5810307,22.3170294 14.2717217,22.3585 13.9922892,22.6476176 C13.7748064,22.8727647 13.6840055,23.1896765 13.6163442,23.4958529 C13.4252229,24.3601176 13.3582938,25.2511471 13.4111634,26.1346765 C13.4502664,26.7895294 13.4161428,27.9071765 14.0778178,28.2645294 C14.1489941,28.3029118 14.2188522,28.3755588 14.1992275,28.4542353 C14.175795,28.5487941 14.0524815,28.5673235 13.9555295,28.5720294 C12.9029712,28.6221765 11.9989162,29.2905588 11.0781657,29.8051176 C11.0321794,29.8308529 10.9746233,29.8561471 10.9299551,29.8280588 C10.853946,29.7804118 10.9139918,29.6642353 10.9734517,29.5967353 C11.8241977,28.6342353 11.8007652,26.6999706 11.8780924,25.4870294 C11.9757767,23.9537941 11.9473648,22.4167353 11.9593739,20.8814412 C11.9674288,19.8455588 11.9579094,18.8037941 11.7814334,17.7830588 C11.6070078,16.7740882 11.2432183,16.3618824 10.2928842,16.0686471 C10.4019918,15.9136471 10.6352915,15.8621765 10.80093,15.8015882 C11.4614334,15.5604118 12.0492961,15.1652647 12.6046462,14.7395294 C12.8077767,14.5837941 13.9742755,13.4476176 14.1938087,13.6337941 C14.2560513,13.6865882 14.2479963,13.7833529 14.2343762,13.8639412 C14.2065501,14.0298235 14.1796027,14.1958529 14.1536805,14.3620294" id="Fill-5" fill="#FFFFFF"></path>
                <path d="M20.7857355,26.3993382 C20.7806096,26.15375 20.7754838,25.9081618 20.7705043,25.6625735 C20.7589346,25.1030147 20.748097,24.5359559 20.8799048,23.9921324 C21.0117126,23.4484559 21.3047652,22.9213971 21.7789803,22.6271324 C22.1005913,22.4275735 22.5326279,22.3444853 22.8845547,22.5121324 C22.7378087,22.5559559 22.5715844,22.6358088 22.4473922,22.7528676 C22.2367927,22.95125 22.087557,23.2209559 22.0591451,23.5094853 C21.9784494,24.3290441 22.9277584,24.8819853 23.6049574,24.4246324 C23.8630078,24.2502206 24.0286462,23.9593382 24.0961611,23.6543382 C24.2475936,22.9700735 23.88893,22.2050735 23.2670902,21.88625 C22.4652595,21.4752206 21.7182023,21.9003676 21.0975341,22.4102206 C21.108811,21.9758088 21.1861382,21.5697794 21.260097,21.1408088 C21.2652229,21.1109559 21.2700558,21.0781618 21.2552641,21.0516912 C21.2157217,20.9803676 21.1076394,21.0311029 21.0484723,21.0869853 C20.2278957,21.8608088 19.3320421,22.6372794 18.2244174,22.9440441 C18.138303,22.9678676 18.0486737,22.9905147 17.9791085,23.0466912 C17.9527469,23.0680147 17.9281428,23.10125 17.9391268,23.1334559 C17.9514288,23.1694853 17.997708,23.1777206 18.0356394,23.1788971 C18.4531771,23.1909559 18.7952915,23.4134559 18.9533144,23.8086029 C19.0665227,24.0915441 19.0792641,24.4036029 19.0855616,24.7084559 C19.1189529,26.3419853 18.9850947,28.0509559 18.146065,29.45125 C17.7887195,30.0478676 18.6678773,29.7109559 18.949946,29.6393382 C19.4308979,29.5171324 19.9275204,29.4827206 20.4222389,29.48125 C20.7252503,29.4805147 22.0377629,29.65125 21.3510444,29.1302206 C20.8746325,28.7688971 20.8205913,28.0831618 20.8081428,27.48375 C20.8006737,27.1222794 20.7932046,26.7608088 20.7857355,26.3993382" id="Fill-7" fill="#FFFFFF"></path>
                <path d="M27.381514,19.7054706 C27.0584384,19.3647353 26.4191707,19.2057647 25.9805437,19.229 C25.6444339,19.2469412 25.3034911,19.3607647 25.0636009,19.5978235 C24.8237108,19.8350294 24.7040586,20.2069412 24.8159487,20.5256176 C24.9025025,20.7723824 25.1114911,20.9588529 25.341276,21.0820882 C25.7942554,21.3247353 26.3563423,21.3509118 26.8296787,21.1513529 C27.0859716,21.0434118 27.3210288,20.8665 27.4564979,20.6228235 C27.6710517,20.2372353 27.5957748,19.9315 27.381514,19.7054706" id="Fill-9" fill="#FFFFFF"></path>
                <path d="M27.3902719,22.1373824 C27.3949584,22.1123824 27.3996449,22.0873824 27.4043314,22.0625294 C27.5484412,21.3026765 27.1410087,21.6828235 26.6730911,21.9147353 C25.8901529,22.3023824 25.0700156,22.5570882 24.2396265,22.8169412 C24.1971551,22.8303235 24.1445785,22.8729706 24.1728439,22.9073824 C24.1863176,22.9237059 24.2104824,22.9241471 24.2315716,22.9241471 C24.7989309,22.9245882 25.0555167,23.3238529 25.1687249,23.8429706 C25.4569446,25.1635588 25.3850362,26.5345882 25.2687524,27.8815 C25.2363863,28.2575294 25.1958188,28.6547353 25.0373565,29.0019412 C24.9527066,29.1873824 24.8403771,29.3481176 24.6948027,29.4906176 C24.6070773,29.5765 24.3679195,29.6882647 24.3443405,29.8134118 C24.3365785,29.8544412 24.3705556,29.8953235 24.4111231,29.9044412 C24.5593336,29.9376765 24.9039378,29.7651765 25.0483405,29.7266471 C25.3529629,29.6454706 25.6618325,29.5809118 25.9734847,29.5338529 C26.6011826,29.439 27.2221437,29.4459118 27.8552604,29.4442941 C27.7435167,29.1741471 27.4851735,29.0100294 27.3299332,28.7669412 C27.1584366,28.4981176 27.0686609,28.1882647 27.0201849,27.8751765 C26.9274801,27.2757647 26.9996815,26.6647353 27.0270682,26.0632647 C27.0863817,24.7617941 27.1522856,23.4210588 27.3902719,22.1373824" id="Fill-11" fill="#FFFFFF"></path>
                <path d="M32.4625428,22.2895735 C32.2466709,22.2658971 32.0240622,22.2491324 31.8207854,22.3231029 C31.3594581,22.4908971 31.1777098,23.1392794 31.4439616,23.55325 C31.7100668,23.9670735 32.318433,24.0863382 32.7491515,23.8503088 C33.9856549,23.1728088 33.0774993,21.5597206 32.1372705,21.1223676 C31.5072293,20.8294265 30.7610508,20.8363382 30.1065519,21.0691324 C29.4921812,21.2878088 28.9432751,21.70575 28.6011606,22.2628088 C28.2588998,22.8198676 28.1338288,23.5156029 28.2980027,24.1489853 C28.4699387,24.8119265 28.934195,25.3620735 29.4557144,25.8036912 C29.9772339,26.2451618 30.5655359,26.6008971 31.095989,27.0316324 C31.5228998,27.37825 31.9462957,27.9036912 31.7692339,28.4254559 C31.6219021,28.8595735 31.1236686,29.0604559 30.6714215,29.1248676 C30.0368403,29.2151618 29.2864146,29.0848676 28.9583597,28.5319265 C29.4391652,28.7238382 30.0279066,28.2726618 30.0183872,27.75325 C30.0090142,27.2338382 29.4697739,26.8104559 28.9563094,26.8736912 C28.4428449,26.9367794 28.0335085,27.4236912 27.9987991,27.9420735 C27.9358243,28.8819265 28.8189364,29.5536912 29.6400989,29.7101618 C30.540346,29.8816324 31.5141126,29.6813382 32.2566297,29.1366324 C33.0685657,28.5410441 33.5936,27.4414853 33.240941,26.4960441 C33.0335634,25.9398676 32.567989,25.5245735 32.0914307,25.1731029 C31.6148723,24.8214853 31.1019936,24.5019265 30.7279524,24.0420735 C30.3540577,23.5820735 30.1405291,22.9331029 30.370314,22.3858971 C30.5432751,21.9736912 30.9653529,21.6794265 31.4102773,21.6604559 C31.8553483,21.6413382 32.3005657,21.8986912 32.5077968,22.2945735 C32.4928586,22.2929559 32.4776275,22.2911912 32.4625428,22.2895735" id="Fill-13" fill="#FFFFFF"></path>
                <path d="M62.9790609,22.302 C62.7850105,22.2749412 62.5856879,22.2518529 62.3974957,22.3037647 C62.0407359,22.4022941 61.7929373,22.7846471 61.8244247,23.1547941 C61.8559121,23.5249412 62.1470609,23.8512647 62.50426,23.9477353 C63.2117748,24.1384706 63.9236833,23.4787647 63.8851661,22.7702353 C63.8651021,22.4024412 63.6837931,22.0586176 63.4444888,21.7793529 C61.6970105,19.7403824 57.9743195,21.7384706 58.8750059,24.3296471 C59.1342279,25.0753824 59.7427405,25.6412647 60.3711707,26.1165588 C61.0272805,26.6127353 63.1577336,27.677 62.0644613,28.7506765 C61.8336513,28.9772941 61.5116009,29.0871471 61.1923332,29.1353824 C60.6451844,29.2181765 60.0485346,29.1037647 59.6041959,28.7556765 C59.5451753,28.7095 59.5032897,28.6415588 59.4883515,28.5678824 C59.4876192,28.5639118 59.4871799,28.5590588 59.4902554,28.5567059 C59.4921593,28.5552353 59.4947954,28.5550882 59.4971387,28.5550882 C59.9186307,28.5549412 60.3675094,28.4981765 60.5155735,28.0240588 C60.6145757,27.7072941 60.493459,27.3408235 60.2431707,27.1239118 C59.9928824,26.907 59.6317291,26.8380294 59.3109968,26.9184706 C58.9577519,27.0071471 58.648443,27.2808235 58.5470975,27.6318529 C58.4789968,27.8680294 58.5043332,28.1236176 58.578292,28.3578824 C58.7541822,28.9155294 59.2032073,29.3672941 59.7384934,29.5980294 C60.574887,29.9583235 61.5918572,29.7956765 62.3862188,29.3908235 C62.9781822,29.0892059 63.4830059,28.5874412 63.712205,27.9617059 C63.9153355,27.4075882 63.8898526,26.7728824 63.6430792,26.2368529 C63.0705941,24.9933235 61.3568,24.807 60.8945941,23.4612647 C60.6536787,22.7599412 60.8943011,21.8627353 61.6874911,21.7164118 C61.9486169,21.6681765 62.2243881,21.6636176 62.4735048,21.7558235 C62.722768,21.8478824 62.9414224,22.0483235 63.0089373,22.3062647 C62.9989785,22.3047941 62.9890197,22.3033235 62.9790609,22.302" id="Fill-15" fill="#FFFFFF"></path>
                <path d="M37.5307423,22.0344412 C37.5947423,21.1015 37.770486,20.1794412 37.8505959,19.2475294 C37.8579185,19.1615 37.8387332,19.0426765 37.7527652,19.0394412 C37.7050215,19.0376765 37.6670902,19.0773824 37.6373602,19.1147353 C37.0540375,19.8481176 36.5931497,20.6153235 35.8977904,21.2651765 C35.207557,21.9101765 34.4105593,22.469 33.5205638,22.7962059 C33.4594929,22.8187059 33.384216,22.8832647 33.4274197,22.9320882 C33.446605,22.9537059 33.4794105,22.9544412 33.5082618,22.9535588 C34.0548247,22.9376765 34.603438,22.8859118 35.1500009,22.8859118 C35.0586142,22.9675294 35.0786783,23.4920882 35.0656439,23.6125294 C35.0196577,24.0387059 34.9651771,24.4642941 34.926367,24.8913529 C34.8442069,25.7962059 34.8163808,26.7059118 34.8433281,27.614 C34.8589986,28.1432647 34.9064494,28.7085588 35.232454,29.1247353 C35.685287,29.7028235 36.5514105,29.8610588 37.2436943,29.8587059 C37.7012137,29.8570882 38.1637126,29.7582647 38.5616256,29.5316471 C38.6333876,29.4907647 38.7722252,29.3963529 38.7257995,29.2917941 C38.655795,29.1342941 38.0732046,29.2425294 37.9279231,29.2091471 C37.62374,29.1392941 37.3437217,28.9457647 37.1878957,28.6720882 C37.0185959,28.3747353 36.9920879,28.019 36.9793465,27.6767941 C36.9475661,26.8131176 36.9799323,25.9470882 37.0755661,25.0881176 C37.1233098,24.6585588 37.1868705,24.2309118 37.2662481,23.8062059 C37.3068156,23.5888529 37.3270261,22.9191471 37.5310352,22.7848824 C37.5815616,22.7515 37.6461474,22.7513529 37.706486,22.7522353 C38.1131863,22.7584118 38.5203259,22.7772353 38.9261474,22.7504706 C38.9905867,22.7463529 39.0589803,22.7397353 39.1097995,22.6998824 C39.1518316,22.6669412 39.1752641,22.6160588 39.197232,22.5670882 C39.2726554,22.3987059 39.3679963,22.2263529 39.4028522,22.0500294 C39.2514197,22.0331176 37.5305959,22.0737059 37.5305959,22.0373824 C37.5305959,22.0363529 37.5307423,22.0354706 37.5307423,22.0344412" id="Fill-17" fill="#FFFFFF"></path>
                <path d="M39.357686,22.4112794 C40.1122124,22.4862794 40.6171826,22.8637794 40.747233,23.6234853 C40.9994252,25.0951029 40.8591231,26.9690735 40.4436357,28.4068676 C40.3109492,28.8664265 40.0931735,29.3106912 39.7520842,29.6451029 C39.7186929,29.6778971 39.6807616,29.7212794 39.6958462,29.7656912 C39.7142993,29.8199559 39.7894297,29.8206912 39.8455213,29.8103971 C40.4109767,29.7062794 40.9272238,29.5465735 41.5093748,29.5361324 C42.0076082,29.5271618 42.5056952,29.5855441 43.0034892,29.5642206 C43.0484503,29.5621618 43.0954618,29.5590735 43.1338325,29.5355441 C43.1722032,29.5120147 43.1979789,29.4612794 43.1790865,29.4203971 C43.1675167,29.3956912 43.143059,29.3801029 43.1199195,29.3658382 C42.8567432,29.2037794 42.670162,28.9678971 42.5374755,28.6831912 C42.3024183,28.1787794 42.4608805,27.5295147 42.4933931,26.9936324 C42.5319103,26.3601029 42.5704275,25.7265735 42.6089446,25.0931912 C42.6455579,24.4908382 42.7000384,23.8418676 43.0907753,23.3831912 C43.3423817,23.08775 43.8142535,22.9143676 44.1146288,23.1596618 C44.5831323,23.5420147 44.3739973,24.5914265 44.3653565,25.1155441 C44.3466105,26.2459853 44.3854206,28.3083382 43.275892,29.0145147 C43.2382535,29.0384853 43.1981254,29.0621618 43.1739606,29.0998088 C43.1497959,29.1376029 43.1483314,29.1943676 43.1834801,29.2218676 C43.1981254,29.2333382 43.2165785,29.2381912 43.2348851,29.2414265 C43.4009629,29.2721618 43.5666014,29.2012794 43.7262352,29.1456912 C44.1219515,29.0076029 44.5336311,28.9833382 44.9480934,28.9564265 C45.2590133,28.9362794 45.5670041,28.9442206 45.877924,28.9424559 C46.1077089,28.9411324 46.3436449,28.9984853 46.5694755,28.9340735 C46.5915899,28.92775 46.6147295,28.9198088 46.6293748,28.9020147 C46.6656952,28.8576029 46.6265922,28.7930441 46.5889538,28.7498088 C46.3150865,28.4364265 46.0435625,28.0968676 45.9527616,27.6899559 C45.7379149,26.7281912 45.9089721,25.39525 46.1349492,24.4446618 C46.2705648,23.8743676 46.6094572,23.3017206 47.1624641,23.1137794 C48.0022261,22.8283382 48.0546563,23.7414265 48.0693016,24.3289265 C48.1013748,25.6176029 48.1384275,27.1067206 47.7441757,28.3473088 C47.6214481,28.73275 47.3789217,29.3046618 47.0114709,29.5181912 C46.9653382,29.5449559 46.9095396,29.5786324 46.9110041,29.6320147 C46.9132009,29.7108382 47.025384,29.7223088 47.1024183,29.7070147 C48.0026654,29.5280441 48.9150682,29.2374559 49.8192696,29.3939265 C49.9992604,29.4251029 50.1770545,29.4739265 50.3593886,29.4817206 C50.3957089,29.4831912 50.4355442,29.4820147 50.4633703,29.4584853 C50.4996906,29.42775 50.5002764,29.3692206 50.4783085,29.3268676 C50.4563405,29.2845147 50.417384,29.2542206 50.3804778,29.2240735 C50.1810087,29.0608382 49.9749492,28.8398088 49.8479744,28.6145147 C49.716313,28.3806912 49.7325693,28.0676029 49.7371094,27.8087794 C49.7526334,26.9355441 49.7334481,26.0631912 49.8517822,25.19775 C50.0076082,24.0586324 50.1093931,22.3746618 48.865567,21.8008382 C47.7069767,21.2662794 46.7358462,22.1662794 46.0719744,23.0195147 C46.2373199,22.8070147 45.7344,22.1334853 45.5779881,22.0006912 C45.2549126,21.7259853 44.8113062,21.6159853 44.3943542,21.6555441 C43.8895304,21.7034853 43.5102169,21.9630441 43.0834526,22.2009853 C42.8913062,21.9426029 43.2398645,21.4176029 43.3220247,21.1408382 C43.3270041,21.1240735 43.33213,21.1068676 43.3309584,21.0893676 C43.3246609,20.9930441 43.1790865,21.0046618 43.0922398,21.0462794 C42.4106471,21.3733382 41.7047432,21.6492206 40.9824366,21.8709853 C40.5033886,22.0180441 39.4622535,22.0506912 39.1128165,22.4290735 C39.139178,22.4003971 39.2397913,22.3995147 39.357686,22.4112794" id="Fill-19" fill="#FFFFFF"></path>
                <path d="M54.8650618,28.3943824 C54.6096476,28.7279118 54.1084851,28.8092353 53.7244851,28.6407059 C53.3404851,28.4723235 53.0729153,28.0985 52.9504805,27.6961471 C52.7697574,27.1015882 52.8940961,26.4320294 53.2520275,25.9286471 C53.4261602,25.6839412 53.5616293,25.4651176 53.8234874,25.3057059 C54.1238627,25.1226176 54.4615835,25.0111471 54.7913959,24.8951176 C54.8908375,24.8602647 54.9927689,24.8239412 55.0733181,24.7557059 C55.0503249,24.7751176 55.039341,24.8715882 55.0340686,24.9905588 C55.0252815,25.1896765 55.0323112,25.4517353 55.0249886,25.5195294 C54.9606957,26.1077647 55.0459314,26.7170294 55.0715606,27.3067353 C55.0879634,27.6835 55.093968,28.0952647 54.8650618,28.3943824 M57.7182609,28.7179118 C57.7162105,28.7173235 57.7141602,28.7165882 57.7121098,28.716 C57.2844668,28.5887941 57.1643753,28.1702647 57.1214645,27.7736471 C57.0218764,26.8512941 57.123222,25.8896765 57.2024531,24.9668824 C57.2868101,23.9851176 57.4490801,22.8935 56.8724943,22.0211471 C56.305135,21.1624706 55.1072952,20.9112941 54.1445126,20.9537941 C53.4572082,20.9842353 52.7677071,21.2826176 52.3690618,21.8629118 C51.8213272,22.6599706 51.9622151,24.1457059 53.2113135,24.0240882 C53.7649062,23.9702647 54.24454,23.4662941 54.1240092,22.8880588 C54.0450709,22.5095294 53.6995881,22.2035 53.3154416,22.1723235 C52.9657117,22.1436471 53.4468101,21.7962941 53.5502059,21.7411471 C53.7526041,21.6332059 54.0004027,21.5783529 54.2285767,21.5729118 C54.5585355,21.5651176 54.88,21.6883529 55.015762,22.0108529 C55.0854737,22.1762941 55.1037803,22.3583529 55.1207689,22.5373235 C55.1606041,22.9582059 55.223286,23.5012941 54.9968696,23.8845294 C54.7640092,24.2786471 54.2966773,24.346 53.8907094,24.4623235 C53.3492723,24.6173235 52.8092998,24.8336471 52.3043295,25.0833529 C51.8333364,25.3164412 51.3670297,25.6115882 51.0944805,26.0623235 C50.8023066,26.5458529 50.7724302,27.1479118 50.855762,27.7071765 C50.9956247,28.6454118 51.4884394,29.2549706 52.3779954,29.5668824 C52.9806499,29.7782059 53.6962197,29.8008529 54.311762,29.6308529 C54.8656476,29.4779118 55.3811625,29.1232059 55.6399451,28.6082059 C55.7226911,28.9732059 56.105373,29.1940882 56.4729703,29.2557059 C56.9206773,29.3308529 57.3950389,29.2314412 57.775524,28.9829118 C57.8302975,28.9471765 57.8897574,28.8929118 57.8767231,28.8286471 C57.8633959,28.7617353 57.7843112,28.7374706 57.7182609,28.7179118" id="Fill-21" fill="#FFFFFF"></path>
                <g id="Group-25" transform="translate(26.215103, 0.004412)">
                    <mask id="mask-2" fill="white">
                        <use xlink:href="#path-1"></use>
                    </mask>
                    <g id="Clip-24"></g>
                    <path d="M2.47876247,1.64120588 L2.11233684,2.86370588 L2.85192494,2.86370588 L2.47876247,1.64120588 Z M3.38867551,0.208264706 C3.43671213,0.252088235 3.46937117,0.302529412 3.48694554,0.359441176 L4.94664348,4.55297059 C4.95089062,4.56605882 4.95308741,4.5815 4.95308741,4.599 C4.95308741,4.63841176 4.93888146,4.67238235 4.91061602,4.70091176 C4.88205767,4.72944118 4.84837346,4.74355882 4.80912403,4.74355882 L3.59810343,4.74355882 C3.46717437,4.74355882 3.38208513,4.68885294 3.3428357,4.57929412 L3.18569153,4.14547059 L1.7784238,4.14547059 L1.62127963,4.57929412 C1.58203021,4.68885294 1.49694096,4.74355882 1.3660119,4.74355882 L0.155137757,4.74355882 C0.11588833,4.74355882 0.0819112128,4.72944118 0.0534993135,4.70091176 C0.0252338673,4.67238235 0.0110279176,4.63841176 0.0110279176,4.599 C0.0110279176,4.5815 0.013224714,4.56605882 0.0176183066,4.55297059 L1.47731625,0.359441176 C1.49474416,0.302529412 1.5274032,0.252088235 1.57543982,0.208264706 C1.62347643,0.164588235 1.68894096,0.142529412 1.77183341,0.142529412 L3.19228192,0.142529412 C3.27517437,0.142529412 3.34049245,0.164588235 3.38867551,0.208264706 L3.38867551,0.208264706 Z" id="Fill-23" fill="#FFFFFF" mask="url(#mask-2)"></path>
                </g>
                <path d="M15.2795973,5.30185294 C15.3270481,5.34964706 15.3507735,5.40611765 15.3507735,5.47170588 L15.3507735,11.2471471 C15.3507735,11.3128824 15.3270481,11.3693529 15.2795973,11.417 C15.232,11.4647941 15.1756156,11.4886176 15.1104439,11.4886176 L13.3653089,11.4886176 C13.2999908,11.4886176 13.2436064,11.4647941 13.1961556,11.417 C13.1485584,11.3693529 13.1249794,11.3128824 13.1249794,11.2471471 L13.1249794,9.31611765 L11.6825629,9.31611765 L11.6825629,11.2471471 C11.6825629,11.3128824 11.6588375,11.3693529 11.6113867,11.417 C11.5637895,11.4647941 11.507405,11.4886176 11.4422334,11.4886176 L9.6970984,11.4886176 C9.63163387,11.4886176 9.57539588,11.4662647 9.52794508,11.4214118 C9.48034783,11.3768529 9.45662243,11.3187647 9.45662243,11.2471471 L9.45662243,5.47170588 C9.45662243,5.40611765 9.48034783,5.34964706 9.52794508,5.30185294 C9.57539588,5.25420588 9.63163387,5.23038235 9.6970984,5.23038235 L11.4422334,5.23038235 C11.507405,5.23038235 11.5637895,5.25420588 11.6113867,5.30185294 C11.6588375,5.34964706 11.6825629,5.40611765 11.6825629,5.47170588 L11.6825629,7.34920588 L13.1249794,7.34920588 L13.1249794,5.47170588 C13.1249794,5.40611765 13.1485584,5.34964706 13.1961556,5.30185294 C13.2436064,5.25420588 13.2999908,5.23038235 13.3653089,5.23038235 L15.1104439,5.23038235 C15.1756156,5.23038235 15.232,5.25420588 15.2795973,5.30185294" id="Fill-26" fill="#FFFFFF"></path>
                <path d="M21.9749638,5.30185294 C22.0224146,5.34964706 22.04614,5.40611765 22.04614,5.47170588 L22.04614,9.12832353 C22.04614,9.94494118 21.7879432,10.5572941 21.2715497,10.9655294 C20.7551561,11.3739118 20.0546709,11.5780294 19.1703872,11.5780294 C18.2799524,11.5780294 17.5750737,11.3739118 17.055751,10.9655294 C16.5362819,10.5572941 16.276767,9.94494118 16.276767,9.12832353 L16.276767,5.47170588 C16.276767,5.40611765 16.300346,5.34964706 16.3479432,5.30185294 C16.3953941,5.25420588 16.4517785,5.23038235 16.5170966,5.23038235 L18.2622316,5.23038235 C18.3274032,5.23038235 18.3837876,5.25420588 18.4313849,5.30185294 C18.4788357,5.34964706 18.5025611,5.40611765 18.5025611,5.47170588 L18.5025611,9.09258824 C18.5025611,9.31905882 18.5573346,9.49038235 18.6673208,9.60655882 C18.7771606,9.72288235 18.9417739,9.78097059 19.1614535,9.78097059 C19.3809867,9.78097059 19.5457465,9.72288235 19.6555863,9.60655882 C19.7652796,9.49038235 19.820346,9.31905882 19.820346,9.09258824 L19.820346,5.47170588 C19.820346,5.40611765 19.8439249,5.34964706 19.8915222,5.30185294 C19.938973,5.25420588 19.9953574,5.23038235 20.0606755,5.23038235 L21.8058105,5.23038235 C21.8709822,5.23038235 21.9273666,5.25420588 21.9749638,5.30185294" id="Fill-28" fill="#FFFFFF"></path>
                <path d="M28.5099936,5.30185294 C28.5574444,5.34964706 28.5811698,5.40611765 28.5811698,5.47170588 L28.5811698,11.2471471 C28.5811698,11.3128824 28.5574444,11.3693529 28.5099936,11.417 C28.4623963,11.4647941 28.4060119,11.4886176 28.3408403,11.4886176 L26.9341584,11.4886176 C26.8331057,11.4886176 26.7560714,11.4677353 26.702616,11.4259706 C26.6491606,11.3843529 26.6046389,11.3365588 26.5690508,11.2828824 L25.0642453,9.00317647 L25.0642453,11.2471471 C25.0642453,11.3128824 25.0405199,11.3693529 24.9930691,11.417 C24.9454719,11.4647941 24.8892339,11.4886176 24.8239158,11.4886176 L23.212346,11.4886176 C23.1470279,11.4886176 23.0906435,11.4647941 23.0431927,11.417 C22.9957419,11.3693529 22.9720165,11.3128824 22.9720165,11.2471471 L22.9720165,5.47170588 C22.9720165,5.40611765 22.9957419,5.34964706 23.0431927,5.30185294 C23.0906435,5.25420588 23.1470279,5.23038235 23.212346,5.23038235 L24.6191744,5.23038235 C24.7852522,5.23038235 24.9069547,5.29891176 24.9842819,5.43597059 L26.488941,7.91244118 L26.488941,5.47170588 C26.488941,5.40611765 26.5125199,5.34964706 26.5601172,5.30185294 C26.607568,5.25420588 26.6639524,5.23038235 26.7292705,5.23038235 L28.3408403,5.23038235 C28.4060119,5.23038235 28.4623963,5.25420588 28.5099936,5.30185294" id="Fill-30" fill="#FFFFFF"></path>
                <path d="M34.8491716,5.30185294 C34.8966224,5.34964706 34.9203478,5.40611765 34.9203478,5.47170588 L34.9203478,6.91111765 C34.9203478,6.97670588 34.8966224,7.03332353 34.8491716,7.08097059 C34.8017208,7.12876471 34.7453364,7.15244118 34.6800183,7.15244118 L33.2021602,7.15244118 L33.2021602,11.2471471 C33.2021602,11.3128824 33.1782883,11.3693529 33.1308375,11.417 C33.0832403,11.4647941 33.0268558,11.4886176 32.9616842,11.4886176 L31.1809611,11.4886176 C31.115643,11.4886176 31.0592586,11.4647941 31.0118078,11.417 C30.9642105,11.3693529 30.9406316,11.3128824 30.9406316,11.2471471 L30.9406316,7.15244118 L29.462627,7.15244118 C29.3971625,7.15244118 29.3409245,7.12876471 29.2934737,7.08097059 C29.2458764,7.03332353 29.222151,6.97670588 29.222151,6.91111765 L29.222151,5.47170588 C29.222151,5.40611765 29.2458764,5.34964706 29.2934737,5.30185294 C29.3409245,5.25420588 29.3971625,5.23038235 29.462627,5.23038235 L34.6800183,5.23038235 C34.7453364,5.23038235 34.8017208,5.25420588 34.8491716,5.30185294" id="Fill-32" fill="#FFFFFF"></path>
                <path d="M37.6983432,9.74517647 L40.4406773,9.74517647 C40.505849,9.74517647 40.5622334,9.769 40.6098307,9.81664706 C40.6572815,9.86444118 40.6810069,9.92105882 40.6810069,9.9865 L40.6810069,11.2472353 C40.6810069,11.3128235 40.6572815,11.3694412 40.6098307,11.4170882 C40.5622334,11.4648824 40.505849,11.4885588 40.4406773,11.4885588 L35.8019222,11.4885588 C35.7364577,11.4885588 35.6802197,11.4648824 35.6327689,11.4170882 C35.5851716,11.3694412 35.5615927,11.3128235 35.5615927,11.2472353 L35.5615927,5.47164706 C35.5615927,5.40620588 35.5851716,5.34958824 35.6327689,5.30179412 C35.6802197,5.25414706 35.7364577,5.23032353 35.8019222,5.23032353 L40.3693547,5.23032353 C40.4346728,5.23032353 40.4909108,5.25414706 40.538508,5.30179412 C40.5859588,5.34958824 40.6098307,5.40620588 40.6098307,5.47164706 L40.6098307,6.73223529 C40.6098307,6.79797059 40.5859588,6.85444118 40.538508,6.90223529 C40.4909108,6.94988235 40.4346728,6.97370588 40.3693547,6.97370588 L37.6983432,6.97370588 L37.6983432,7.53694118 L40.1735469,7.53694118 C40.2387185,7.53694118 40.295103,7.56076471 40.3427002,7.60841176 C40.390151,7.65620588 40.4138764,7.71282353 40.4138764,7.77826471 L40.4138764,8.94047059 C40.4138764,9.00620588 40.390151,9.06282353 40.3427002,9.11047059 C40.295103,9.15811765 40.2387185,9.18194118 40.1735469,9.18194118 L37.6983432,9.18194118 L37.6983432,9.74517647 Z" id="Fill-34" fill="#FFFFFF"></path>
                <path d="M44.3758279,7.84091176 C44.5063176,7.84091176 44.6073703,7.79767647 44.6785465,7.71120588 C44.7497227,7.62488235 44.7854572,7.51605882 44.7854572,7.38488235 C44.7854572,7.25385294 44.7511872,7.139 44.68294,7.04076471 C44.6146929,6.94238235 44.5123222,6.89326471 44.3758279,6.89326471 L43.7258691,6.89326471 L43.7258691,7.84091176 L44.3758279,7.84091176 Z M47.2605144,11.2917941 C47.2605144,11.3454706 47.2411826,11.3917941 47.2026654,11.4304706 C47.1640018,11.4692941 47.118162,11.4885588 47.0647066,11.4885588 L45.2394618,11.4885588 C45.1326975,11.4885588 45.0480476,11.4632647 44.985805,11.4125294 C44.923416,11.3619412 44.8803588,11.3067941 44.8566334,11.2472353 L44.0909767,9.53958824 L43.7258691,9.53958824 L43.7258691,11.2472353 C43.7258691,11.3128235 43.7021437,11.3694412 43.6546929,11.4170882 C43.6070957,11.4648824 43.5507112,11.4885588 43.4855396,11.4885588 L41.7404046,11.4885588 C41.6750865,11.4885588 41.6187021,11.4648824 41.5712513,11.4170882 C41.523654,11.3694412 41.5000751,11.3128235 41.5000751,11.2472353 L41.5000751,5.47164706 C41.5000751,5.40620588 41.523654,5.34958824 41.5712513,5.30179412 C41.6187021,5.25429412 41.6750865,5.23032353 41.7404046,5.23032353 L44.3758279,5.23032353 C45.2306746,5.23032353 45.8983542,5.42252941 46.3791597,5.80694118 C46.8599652,6.19135294 47.1004412,6.72326471 47.1004412,7.40282353 C47.1004412,7.79032353 47.0143268,8.1315 46.8422444,8.4265 C46.6700156,8.7215 46.4355442,8.96444118 46.1388302,9.15517647 L47.23386,11.1935588 C47.2517272,11.2292941 47.2605144,11.2620882 47.2605144,11.2917941 L47.2605144,11.2917941 Z" id="Fill-36" fill="#FFFFFF"></path>
                <path d="M21.8879121,16.6605441 C22.000681,16.7708382 22.1609007,16.8259853 22.3687176,16.8259853 C22.7070243,16.8259853 22.929633,16.6649559 23.0363973,16.3431912 C23.0661272,16.2418676 23.1031799,16.1733382 23.1477016,16.1376029 C23.1922233,16.1017206 23.2648641,16.0839265 23.3659167,16.0839265 L25.1822279,16.0839265 C25.2356833,16.0839265 25.2815231,16.1033382 25.3201867,16.1420147 C25.3587039,16.1808382 25.3780357,16.2268676 25.3780357,16.2805441 C25.3721776,16.7990735 25.2280677,17.2298088 24.946292,17.5724559 C24.6642233,17.91525 24.2992622,18.1670147 23.8511158,18.3278971 C23.4028229,18.4887794 22.9117657,18.5693676 22.3776513,18.5693676 C21.4813584,18.5693676 20.7690105,18.3712794 20.2407542,17.9746618 C19.7123515,17.5784853 19.4305757,16.9689265 19.3949876,16.1464265 C19.3888366,15.9855441 19.386054,15.7233382 19.386054,15.3596618 C19.386054,14.99025 19.3888366,14.7220147 19.3949876,14.5551029 C19.4305757,13.7564265 19.7183561,13.1530441 20.2586215,12.7446618 C20.7985941,12.3364265 21.5050838,12.1321618 22.3776513,12.1321618 C22.9117657,12.1321618 23.4028229,12.21275 23.8511158,12.3736324 C24.2992622,12.5345147 24.6642233,12.7864265 24.946292,13.1290735 C25.2280677,13.4718676 25.3721776,13.9024559 25.3780357,14.4209853 C25.3780357,14.4745147 25.3587039,14.5208382 25.3201867,14.5595147 C25.2815231,14.5983382 25.2356833,14.61775 25.1822279,14.61775 L23.3659167,14.61775 C23.2708686,14.61775 23.201157,14.5998088 23.1566352,14.5640735 C23.1121135,14.5281912 23.0721318,14.4598088 23.0363973,14.3583382 C22.9710792,14.1796618 22.8851112,14.0543676 22.7782005,13.9828971 C22.6714362,13.9114265 22.5347954,13.8755441 22.3687176,13.8755441 C22.1609007,13.8755441 22.000681,13.9308382 21.8879121,14.0409853 C21.7749968,14.1514265 21.7156833,14.3376029 21.7098252,14.5998088 C21.7038206,14.7606912 21.7008915,15.0080441 21.7008915,15.3418676 C21.7008915,15.6756912 21.7038206,15.9289265 21.7098252,16.1017206 C21.7156833,16.3640735 21.7749968,16.55025 21.8879121,16.6605441" id="Fill-38" fill="#FFFFFF"></path>
                <path d="M28.8504531,14.2600294 L28.3519268,15.9229706 L29.357913,15.9229706 L28.8504531,14.2600294 Z M30.0881281,12.3110588 C30.1532998,12.3707647 30.1978215,12.4392941 30.2215469,12.5166471 L32.2070114,18.2206176 C32.2128696,18.2385588 32.2159451,18.2594412 32.2159451,18.2831176 C32.2159451,18.3367941 32.1966133,18.3831176 32.1580961,18.4217941 C32.1194325,18.4606176 32.0735927,18.4798824 32.0201373,18.4798824 L30.3729794,18.4798824 C30.1948924,18.4798824 30.0791945,18.4054706 30.0257391,18.2563529 L29.8120641,17.6663529 L27.8977757,17.6663529 L27.6841007,18.2563529 C27.6306453,18.4054706 27.5149474,18.4798824 27.3368604,18.4798824 L25.6897025,18.4798824 C25.6362471,18.4798824 25.5902609,18.4606176 25.5517437,18.4217941 C25.5130801,18.3831176 25.4938947,18.3367941 25.4938947,18.2831176 C25.4938947,18.2594412 25.4966773,18.2385588 25.5026819,18.2206176 L27.4882929,12.5166471 C27.5118719,12.4392941 27.5563936,12.3707647 27.6217117,12.3110588 C27.6870297,12.2515 27.7760732,12.2216471 27.8888421,12.2216471 L29.8209977,12.2216471 C29.9336201,12.2216471 30.0226636,12.2515 30.0881281,12.3110588 L30.0881281,12.3110588 Z" id="Fill-40" fill="#FFFFFF"></path>
                <path d="M35.5814371,14.83225 C35.7119268,14.83225 35.812833,14.7890147 35.8841556,14.7025441 C35.9553318,14.6162206 35.9909199,14.5073971 35.9909199,14.3762206 C35.9909199,14.2451912 35.9567963,14.1303382 35.8885492,14.0321029 C35.8203021,13.9337206 35.7179314,13.8846029 35.5814371,13.8846029 L34.9314783,13.8846029 L34.9314783,14.83225 L35.5814371,14.83225 Z M38.4661236,18.2831324 C38.4661236,18.3368088 38.4467918,18.3831324 38.4082746,18.4218088 C38.369611,18.4606324 38.3237712,18.4798971 38.2703158,18.4798971 L36.4450709,18.4798971 C36.3383066,18.4798971 36.2536568,18.4546029 36.1912677,18.4038676 C36.1290252,18.3532794 36.0858215,18.2981324 36.0622426,18.2385735 L35.2965858,16.5309265 L34.9314783,16.5309265 L34.9314783,18.2385735 C34.9314783,18.3041618 34.9077529,18.3607794 34.8603021,18.4084265 C34.8127048,18.4562206 34.7563204,18.4798971 34.6910023,18.4798971 L32.9460137,18.4798971 C32.8805492,18.4798971 32.8243112,18.4562206 32.7768604,18.4084265 C32.7292632,18.3607794 32.7055378,18.3041618 32.7055378,18.2385735 L32.7055378,12.4629853 C32.7055378,12.3975441 32.7292632,12.3409265 32.7768604,12.2931324 C32.8243112,12.2456324 32.8805492,12.2216618 32.9460137,12.2216618 L35.5814371,12.2216618 C36.4361373,12.2216618 37.1039634,12.4138676 37.5847689,12.7982794 C38.0655744,13.1826912 38.3059039,13.7146029 38.3059039,14.3941618 C38.3059039,14.7816618 38.2197895,15.1228382 38.0477071,15.4178382 C37.8754783,15.7128382 37.6410069,15.9557794 37.3442929,16.1463676 L38.4394691,18.1848971 C38.4571899,18.2206324 38.4661236,18.2534265 38.4661236,18.2831324 L38.4661236,18.2831324 Z" id="Fill-42" fill="#FFFFFF"></path>
                <path d="M42.3792037,16.6471471 C42.4949016,16.5278824 42.5556796,16.3462647 42.5616842,16.1018529 C42.5735469,15.7561176 42.5795515,15.5027353 42.5795515,15.3418529 C42.5795515,15.1690588 42.5735469,14.9215588 42.5616842,14.5997941 C42.5556796,14.3553824 42.4934371,14.1737647 42.3746636,14.0543529 C42.2558902,13.9352353 42.098746,13.8756765 41.9029382,13.8756765 C41.706984,13.8756765 41.5496934,13.9352353 41.4309199,14.0543529 C41.3121465,14.1737647 41.2499039,14.3553824 41.2440458,14.5997941 C41.2380412,14.7606765 41.2351121,15.0080294 41.2351121,15.3418529 C41.2351121,15.6756765 41.2380412,15.9289118 41.2440458,16.1018529 C41.2499039,16.3462647 41.3106819,16.5278824 41.4265263,16.6471471 C41.5422243,16.7664118 41.7009794,16.8259706 41.9029382,16.8259706 C42.1046041,16.8259706 42.2635057,16.7664118 42.3792037,16.6471471 M44.0307551,17.9524412 C43.5024989,18.3636176 42.7932265,18.5693529 41.9029382,18.5693529 C41.0125034,18.5693529 40.3030847,18.3636176 39.7748284,17.9524412 C39.2465721,17.5411176 38.9646499,16.9421471 38.9290618,16.1553824 C38.9230572,15.9945 38.9201281,15.7352353 38.9201281,15.3775882 C38.9201281,15.0140588 38.9230572,14.7487647 38.9290618,14.582 C38.9469291,14.0693529 39.0818124,13.6283235 39.334151,13.2587647 C39.5864897,12.8892059 39.932119,12.6092059 40.3714783,12.4183235 C40.8106911,12.2275882 41.3210801,12.1322941 41.9029382,12.1322941 C42.4845034,12.1322941 42.9950389,12.2275882 43.4343982,12.4183235 C43.873611,12.6092059 44.2192403,12.8892059 44.4714325,13.2587647 C44.7237712,13.6283235 44.8589474,14.0693529 44.8766682,14.582 C44.8883844,14.9158235 44.894389,15.1809706 44.894389,15.3775882 C44.894389,15.5742059 44.8883844,15.8336176 44.8766682,16.1553824 C44.8409336,16.9421471 44.5590114,17.5411176 44.0307551,17.9524412" id="Fill-44" fill="#FFFFFF"></path>
                <path d="M51.2336403,12.2931912 C51.2810911,12.3409853 51.3048165,12.3974559 51.3048165,12.4630441 L51.3048165,18.2384853 C51.3048165,18.3042206 51.2810911,18.3606912 51.2336403,18.4083382 C51.186043,18.4561324 51.1296586,18.4799559 51.064487,18.4799559 L49.6576586,18.4799559 C49.5567524,18.4799559 49.4797181,18.4590735 49.4262627,18.4173088 C49.3728073,18.3756912 49.3282856,18.3278971 49.2926975,18.2742206 L47.787892,15.9945147 L47.787892,18.2384853 C47.787892,18.3042206 47.7641666,18.3606912 47.7167158,18.4083382 C47.6691185,18.4561324 47.6127341,18.4799559 47.5475625,18.4799559 L45.9359927,18.4799559 C45.8706746,18.4799559 45.8142902,18.4561324 45.7668394,18.4083382 C45.7193886,18.3606912 45.6956632,18.3042206 45.6956632,18.2384853 L45.6956632,12.4630441 C45.6956632,12.3974559 45.7193886,12.3409853 45.7668394,12.2931912 C45.8142902,12.2455441 45.8706746,12.2217206 45.9359927,12.2217206 L47.3428211,12.2217206 C47.5088989,12.2217206 47.6306014,12.29025 47.7079286,12.4273088 L49.2125876,14.9037794 L49.2125876,12.4630441 C49.2125876,12.3974559 49.2361666,12.3409853 49.2837638,12.2931912 C49.3312146,12.2455441 49.3875991,12.2217206 49.4529172,12.2217206 L51.064487,12.2217206 C51.1296586,12.2217206 51.186043,12.2455441 51.2336403,12.2931912" id="Fill-46" fill="#FFFFFF"></path>
            </g>
        </g>
    </g>
</svg>